<svg width="90" height="92" viewBox="0 0 90 92" fill="none" xmlns="http://www.w3.org/2000/svg">
<g id="Logo / Horizon" clip-path="url(#clip0_808_9060)">
<path id="Vector" d="M21.6473 86.6484C21.7226 86.4381 21.7979 86.2341 21.8639 86.0207C22.0145 85.5656 22.0365 85.5185 22.1024 85.3208L21.3742 85.2862L21.4495 85.101C21.5907 85.1082 21.7321 85.1082 21.8733 85.101C21.958 85.101 22.2123 85.101 22.4696 85.0822H23.0754C23.5889 85.0603 24.096 85.2033 24.5224 85.4902C24.7254 85.6601 24.8873 85.8738 24.996 86.1151C25.1047 86.3564 25.1574 86.6193 25.1501 86.8839C25.1247 87.391 24.9767 87.8844 24.7186 88.3218C24.4606 88.7592 24.1003 89.1274 23.6686 89.3949C23.0681 89.7732 22.3656 89.9574 21.6567 89.9222C21.5092 89.9222 20.7747 89.8939 20.6052 89.8939C20.4357 89.8939 20.0183 89.9127 19.8833 89.9222L19.9618 89.737L20.6366 89.6805C20.6962 89.4702 20.737 89.3666 21.0792 88.3371L21.6473 86.6484ZM21.7101 88.3904C21.5563 88.8236 21.4244 89.2191 21.28 89.6679C21.4133 89.6846 21.5475 89.693 21.6818 89.693C22.2312 89.7123 22.7713 89.5477 23.2167 89.2254C23.8444 88.72 24.4062 87.5116 24.4062 86.548C24.4221 86.3763 24.4006 86.2033 24.3432 86.0407C24.2858 85.8781 24.1938 85.73 24.0735 85.6064C23.8021 85.3864 23.4589 85.2746 23.1099 85.2925C22.7961 85.2925 22.7772 85.327 22.727 85.4149C22.6768 85.5028 22.3284 86.5449 22.2593 86.7552L21.7101 88.3904Z" fill="#231F20"/>
<path id="Vector_2" d="M28.7345 89.1751C28.5744 89.4011 28.1601 90.0006 27.5324 90.0006C27.0647 90.0006 26.6724 89.6648 26.6724 89.0151C26.6724 87.904 27.9279 86.9529 28.6215 86.9529C28.6924 86.9458 28.7639 86.9538 28.8314 86.9764C28.899 86.999 28.9609 87.0357 29.0131 87.0841C29.0654 87.1325 29.1067 87.1914 29.1345 87.257C29.1622 87.3226 29.1756 87.3933 29.174 87.4645C29.174 88.1268 28.292 88.5191 27.5669 88.5191H27.3754C27.2754 88.7132 27.2237 88.9286 27.2248 89.1469C27.2248 89.6491 27.5732 89.7244 27.7144 89.7244C28.0911 89.7244 28.4583 89.2662 28.5901 89.0967L28.7345 89.1751ZM28.3077 88.1205C28.4145 88.0473 28.5043 87.952 28.5709 87.8409C28.6375 87.7299 28.6794 87.6058 28.6937 87.4771C28.699 87.4393 28.6964 87.4009 28.6861 87.3642C28.6757 87.3275 28.6579 87.2933 28.6337 87.2638C28.6096 87.2343 28.5795 87.2102 28.5456 87.1928C28.5116 87.1755 28.4744 87.1654 28.4363 87.1632C28.3133 87.1778 28.2007 87.2397 28.1225 87.3358C27.8584 87.633 27.6376 87.9658 27.4665 88.3245C27.7588 88.3463 28.0503 88.2737 28.2982 88.1174" fill="#231F20"/>
<path id="Vector_3" d="M31.3146 90.1795C30.9128 91.2498 30.85 91.4162 30.6868 91.8023L31.4307 91.7866L31.3742 91.9686C31.3397 91.9686 29.9335 91.9686 29.491 92L29.56 91.8211H30.0842C30.2788 91.4005 30.3259 91.2781 30.7873 90.1105L31.7289 87.5461L31.415 87.6842C31.1523 87.8059 30.9332 88.0053 30.7873 88.2555L30.6931 88.1456C30.8682 87.8181 31.1446 87.556 31.4809 87.3986C31.8418 87.2636 32.1587 87.0324 32.3974 86.73L32.4916 86.8556L32.2185 87.5461C32.3112 87.381 32.4435 87.2414 32.6035 87.14C32.7635 87.0387 32.9461 86.9787 33.1351 86.9654C33.2452 86.9626 33.3546 86.9837 33.4558 87.0274C33.557 87.0711 33.6474 87.1362 33.7209 87.2183C33.7943 87.3005 33.849 87.3976 33.8812 87.503C33.9134 87.6083 33.9223 87.7195 33.9072 87.8286C33.9072 88.9366 32.6517 90.0257 31.9894 90.0257C31.8858 90.0289 31.7832 90.0044 31.6922 89.9547C31.6011 89.9051 31.525 89.8321 31.4715 89.7432L31.3146 90.1795ZM33.3673 87.4928C33.3673 87.408 33.3673 87.1538 33.0848 87.1538C32.3064 87.1538 31.6222 88.8361 31.6222 89.4451C31.6222 89.6773 31.7414 89.7809 31.9361 89.7809C32.6956 89.7809 33.3767 88.1048 33.3767 87.4928" fill="#231F20"/>
<path id="Vector_4" d="M39.0704 89.2567C38.8444 89.5266 38.4709 89.9661 37.9467 89.9661C37.7051 89.9661 37.5136 89.8499 37.5136 89.5957C37.5286 89.3584 37.5973 89.1277 37.7145 88.9209C37.5356 89.1594 36.9329 89.9661 36.3115 89.9661C35.8658 89.9661 35.8658 89.4576 35.8658 89.4168C35.9373 88.9862 36.0919 88.5737 36.3209 88.2021L36.437 87.973C36.6504 87.5649 36.6504 87.5241 36.6504 87.4708C36.6504 87.3672 36.5751 87.3327 36.4841 87.3327C36.2236 87.3327 36.0447 87.5932 35.9474 87.747L35.825 87.6716C35.9128 87.5179 36.2299 86.9937 36.7666 86.9937C36.8214 86.9881 36.8767 86.9938 36.9292 87.0104C36.9817 87.0271 37.0302 87.0544 37.0717 87.0906C37.1132 87.1268 37.1468 87.1711 37.1705 87.2209C37.1941 87.2706 37.2073 87.3247 37.2091 87.3797C37.136 87.7225 37.0078 88.0511 36.8294 88.3528L36.6285 88.7608C36.4898 88.9784 36.384 89.2153 36.3146 89.4639C36.3144 89.4869 36.3191 89.5097 36.3285 89.5307C36.3379 89.5517 36.3517 89.5704 36.369 89.5856C36.3862 89.6008 36.4066 89.6121 36.4286 89.6187C36.4507 89.6253 36.4739 89.6271 36.4966 89.624C36.8137 89.5806 37.1022 89.4178 37.3033 89.1688C37.6172 88.855 38.0001 88.3182 38.5023 87.0345H39.0893C38.8601 87.499 38.0597 89.3195 38.0597 89.5172C38.0597 89.6585 38.157 89.6773 38.2292 89.6773C38.4678 89.6773 38.8005 89.332 38.9637 89.1594L39.0704 89.2567Z" fill="#231F20"/>
<path id="Vector_5" d="M42.498 89.2504C42.3814 89.4455 42.2213 89.6111 42.0302 89.7341C41.8391 89.8572 41.6222 89.9344 41.3963 89.9598C41.1546 89.9598 40.9631 89.8342 40.9631 89.5863C40.9631 89.3383 41.0793 89.1311 41.3555 88.5944L41.7353 87.8631C41.8228 87.7232 41.8854 87.5692 41.9205 87.408C41.9205 87.3515 41.8796 87.2981 41.7761 87.2981C41.4622 87.2981 41.299 87.6654 41.2299 87.8097L41.0793 87.7407C41.3931 87.0094 41.9079 86.9937 41.9895 86.9937C42.0495 86.9924 42.1091 87.0033 42.1647 87.0257C42.2204 87.0482 42.2709 87.0817 42.3131 87.1243C42.3554 87.1668 42.3886 87.2175 42.4106 87.2733C42.4327 87.3291 42.4432 87.3888 42.4415 87.4488C42.4164 87.6958 42.3266 87.9319 42.181 88.133L41.7259 89.0025C41.622 89.165 41.5476 89.3446 41.5061 89.5329C41.5059 89.553 41.51 89.573 41.5183 89.5914C41.5266 89.6097 41.5388 89.6261 41.554 89.6392C41.5693 89.6524 41.5872 89.6621 41.6066 89.6675C41.626 89.673 41.6463 89.6742 41.6662 89.671C41.9267 89.671 42.294 89.2693 42.3819 89.1531L42.498 89.2504ZM42.9625 85.6283C42.9629 85.6754 42.954 85.7221 42.9361 85.7657C42.9183 85.8093 42.892 85.8489 42.8587 85.8822C42.8253 85.9156 42.7857 85.9419 42.7421 85.9597C42.6985 85.9776 42.6518 85.9865 42.6047 85.9861C42.5572 85.9874 42.51 85.979 42.4658 85.9616C42.4216 85.9441 42.3815 85.9178 42.3477 85.8844C42.314 85.8509 42.2874 85.811 42.2695 85.767C42.2516 85.723 42.2429 85.6758 42.2437 85.6283C42.2433 85.5804 42.2526 85.5329 42.271 85.4886C42.2894 85.4444 42.3166 85.4044 42.3509 85.3709C42.3852 85.3375 42.426 85.3113 42.4707 85.2941C42.5154 85.2768 42.5631 85.2688 42.611 85.2705C42.6579 85.2696 42.7046 85.2783 42.748 85.296C42.7915 85.3138 42.8309 85.3402 42.8638 85.3737C42.8967 85.4072 42.9224 85.4471 42.9394 85.4908C42.9564 85.5346 42.9642 85.5814 42.9625 85.6283Z" fill="#231F20"/>
<path id="Vector_6" d="M45.6619 88.1456C45.8232 88.3884 45.9154 88.6705 45.9287 88.9617C45.9287 89.2372 45.8192 89.5015 45.6244 89.6963C45.4296 89.8912 45.1653 90.0006 44.8898 90.0006C44.6862 90.0093 44.4867 89.9413 44.3309 89.8099C44.1751 89.6785 44.0744 89.4934 44.0486 89.2913C44.0485 89.2002 44.0838 89.1126 44.1471 89.047C44.2103 88.9814 44.2965 88.943 44.3876 88.9397C44.461 88.9396 44.5317 88.9674 44.5854 89.0175C44.639 89.0677 44.6715 89.1364 44.6763 89.2096C44.677 89.2554 44.6611 89.2999 44.6318 89.335C44.6024 89.3702 44.5614 89.3936 44.5163 89.4011C44.4598 89.4011 44.4221 89.4011 44.4221 89.4576C44.4561 89.56 44.5234 89.6481 44.6133 89.7078C44.7032 89.7675 44.8104 89.7955 44.918 89.7872C45.0539 89.7941 45.187 89.7472 45.2886 89.6568C45.3902 89.5663 45.4521 89.4395 45.461 89.3038C45.4321 89.1214 45.3588 88.949 45.2476 88.8016C45.0903 88.5699 44.9992 88.2997 44.9839 88.0201C44.9935 87.7379 45.1107 87.4701 45.3115 87.2717C45.5123 87.0732 45.7814 86.9591 46.0637 86.9529C46.3995 86.9529 46.6412 87.1192 46.6412 87.3515C46.6446 87.4387 46.6136 87.5238 46.5549 87.5884C46.4962 87.653 46.4145 87.6919 46.3273 87.6968C46.3029 87.6989 46.2783 87.6961 46.255 87.6885C46.2317 87.6809 46.2102 87.6687 46.1917 87.6526C46.1732 87.6364 46.1582 87.6168 46.1475 87.5947C46.1369 87.5726 46.1308 87.5486 46.1296 87.5241C46.1296 87.499 46.1924 87.3609 46.1924 87.3264C46.1924 87.2291 46.0731 87.16 45.9413 87.16C45.8162 87.1609 45.6959 87.2078 45.6033 87.2917C45.5106 87.3757 45.4522 87.4908 45.4391 87.6152C45.4721 87.805 45.5448 87.9858 45.6525 88.1456" fill="#231F20"/>
<path id="Vector_7" d="M52.7366 89.9191C52.5263 89.9191 52.0712 89.9191 51.5972 89.9191C51.299 89.9191 51.0071 89.9191 50.7058 89.9191L50.7717 89.7558H51.4528C51.5847 89.442 51.6035 89.3917 51.8075 88.8519C51.9017 88.6039 52.0021 88.3528 52.0994 88.0986L52.9186 85.9674L52.0021 86.0301L52.0586 85.8826C52.57 85.8289 53.0717 85.7054 53.5495 85.5154L53.6908 85.6284C53.475 86.0819 53.2823 86.546 53.1132 87.0188L52.068 89.7558H52.7994L52.7366 89.9191Z" fill="#231F20"/>
<path id="Vector_8" d="M54.8553 89.9629C55.3256 89.9395 55.7846 89.8098 56.1977 89.5837C56.6109 89.3575 56.9674 89.0408 57.2407 88.6572C57.338 88.5191 57.429 88.3716 57.5201 88.2272C57.4137 88.3175 57.2967 88.3944 57.1717 88.4563C57.0185 88.537 56.8488 88.581 56.6757 88.585C56.0825 88.585 55.6745 88.0389 55.6745 87.3515C55.6683 86.8907 55.8418 86.4455 56.1582 86.1104C56.4746 85.7753 56.909 85.5765 57.3694 85.5561C57.5423 85.5538 57.7137 85.5892 57.8716 85.6597C58.0987 85.7754 58.2852 85.9575 58.4063 86.1818C58.5274 86.4061 58.5774 86.6619 58.5496 86.9152C58.5496 88.1896 57.4761 90.054 54.8364 90.1387L54.8553 89.9629ZM56.2708 87.4865C56.2708 88.0577 56.5533 88.359 56.8766 88.359C57.5044 88.359 58.0536 87.3044 58.0536 86.5637C58.0536 85.757 57.4949 85.757 57.4259 85.757C56.6851 85.757 56.2614 86.8681 56.2614 87.4865" fill="#231F20"/>
<path id="Vector_9" d="M62.8403 89.1594C62.6897 89.3635 62.2126 89.9975 61.4467 89.9975C60.7719 89.9975 60.3481 89.3509 60.3481 88.5474C60.3481 87.0722 61.6037 85.5562 62.652 85.5562C63.1259 85.5562 63.6595 85.9014 63.6595 86.843C63.6391 87.6825 63.3522 88.4938 62.8403 89.1594ZM63.4179 86.7771C63.4179 86.1494 63.1448 85.8355 62.7901 85.8355C61.9458 85.8355 60.9633 87.7407 60.9633 88.9743C60.9633 89.3603 61.0544 89.7652 61.5095 89.7652C62.4135 89.7652 63.4273 87.9604 63.4273 86.7614" fill="#231F20"/>
<path id="Vector_10" d="M67.021 89.9191C66.8107 89.9191 66.3587 89.9191 65.8848 89.9191C65.5709 89.9191 65.2916 89.9191 64.9902 89.9191L65.0561 89.7558H65.7404C65.8691 89.442 65.8911 89.3917 66.0919 88.8519C66.1861 88.6039 66.2865 88.3528 66.3838 88.0986L67.2031 85.9674L66.2865 86.0301L66.343 85.8826C66.8545 85.8289 67.3561 85.7054 67.8339 85.5154L67.9783 85.6284C67.7608 86.0815 67.567 86.5456 67.3977 87.0188L66.3493 89.7558H67.0869L67.021 89.9191Z" fill="#231F20"/>
<path id="Vector_11" d="M35.2632 52.2069V51.0236H33.3329V52.2069H32.8401V49.5013H33.3329V50.6093H35.2632V49.5013H35.756V52.2069H35.2632Z" fill="#231F20"/>
<path id="Vector_12" d="M40.0121 52.2665C38.8382 52.2665 38.3862 51.7204 38.3862 50.8541C38.3862 49.9878 38.8382 49.4542 40.0121 49.4542C41.186 49.4542 41.6317 49.9878 41.6317 50.8541C41.6317 51.7204 41.1829 52.2665 40.0121 52.2665ZM40.0121 49.8623C39.2086 49.8623 38.901 50.1761 38.901 50.8541C38.901 51.5321 39.2149 51.8554 40.0121 51.8554C40.8094 51.8554 41.1138 51.5415 41.1138 50.8541C41.1138 50.1667 40.8188 49.8623 40.0121 49.8623Z" fill="#231F20"/>
<path id="Vector_13" d="M45.3887 49.9187V52.2069H44.8959V49.9187H43.7283L43.7408 49.5013H46.5531L46.5657 49.9187H45.3887Z" fill="#231F20"/>
<path id="Vector_14" d="M51.4937 51.8051L51.4811 52.2069H48.9607V49.5013H51.3964L51.4089 49.9093H49.4472V50.6344H51.1264V50.9828H49.4472V51.8051H51.4937Z" fill="#231F20"/>
<path id="Vector_15" d="M56.431 51.7863L56.4184 52.2069H54.0549V49.5013H54.5446V51.7863H56.431Z" fill="#231F20"/>
<path id="Vector_16" d="M33.6028 77.1819V75.9547H31.5971V77.1819H31.0886V74.379H31.5971V75.5247H33.6028V74.379H34.1112V77.1819H33.6028Z" fill="#231F20"/>
<path id="Vector_17" d="M40.1282 76.5447H38.2262L37.8903 77.1725H37.3379L38.9073 74.3665H39.4722L41.0416 77.1725H40.4609L40.1282 76.5447ZM39.0454 74.9754L38.4176 76.1461H39.9211L39.3122 74.9754L39.1803 74.7023L39.0454 74.9754Z" fill="#231F20"/>
<path id="Vector_18" d="M46.9831 77.1819L44.9492 75.2265L44.7357 75.0099L44.7263 75.0131L44.7326 75.3144V77.1819H44.2681V74.379H44.7138L46.6504 76.2623L46.8638 76.4789L46.8701 76.4726L46.8638 76.1744L46.8607 74.379H47.3189V77.1819H46.9831Z" fill="#231F20"/>
<path id="Vector_19" d="M52.4634 77.2447C51.2518 77.2447 50.781 76.6797 50.781 75.7789C50.781 74.8781 51.2487 74.3257 52.4634 74.3257C53.6781 74.3257 54.1457 74.8812 54.1457 75.7789C54.1457 76.6766 53.6812 77.2447 52.4634 77.2447ZM52.4634 74.7494C51.6347 74.7494 51.3146 75.0633 51.3146 75.7789C51.3146 76.4946 51.6285 76.8179 52.4634 76.8179C53.2983 76.8179 53.609 76.4883 53.609 75.7789C53.609 75.0696 53.2951 74.7494 52.4634 74.7494Z" fill="#231F20"/>
<path id="Vector_20" d="M47.4917 59.0085C50.2695 59.0085 52.2532 61.2465 52.2532 64.0776C52.2532 66.9088 50.2695 69.1373 47.4917 69.1373C44.7139 69.1373 42.7522 66.9056 42.7522 64.0776C42.7522 61.2496 44.7202 59.0085 47.4917 59.0085ZM47.4917 68.5158C49.7987 68.5158 50.3166 65.9389 50.3166 64.0776C50.3166 62.2164 49.7987 59.63 47.4917 59.63C45.1847 59.63 44.6888 62.2132 44.6888 64.0776C44.6888 65.9421 45.191 68.5158 47.4917 68.5158Z" fill="#231F20"/>
<path id="Vector_21" d="M68.104 59.0085C70.8881 59.0085 72.8655 61.2465 72.8655 64.0776C72.8655 66.9088 70.8881 69.1373 68.104 69.1373C65.3199 69.1373 63.3645 66.9056 63.3645 64.0776C63.3645 61.2496 65.3451 59.0085 68.104 59.0085ZM68.104 68.5158C70.4141 68.5158 70.9289 65.9389 70.9289 64.0776C70.9289 62.2164 70.4141 59.63 68.104 59.63C65.7939 59.63 65.298 62.2132 65.298 64.0776C65.298 65.9421 65.8033 68.5158 68.104 68.5158Z" fill="#231F20"/>
<path id="Vector_22" d="M8.12545 61.5792L8.05012 61.4788L8.01245 61.5384L8.12545 61.5792Z" fill="#231F20"/>
<path id="Vector_23" d="M14.2743 67.6213V56.6012C14.2743 55.7977 14.8769 55.625 15.2756 55.3645H11.9548L8.04387 61.4788L8.1192 61.5792L8.0062 61.5384L8.03759 61.4788L3.57114 55.3645H0.149902C0.652103 55.6784 1.37715 55.9075 1.37715 56.9088V67.3137C1.37715 68.3181 0.652103 68.541 0.149902 68.8643H3.70925C3.13172 68.4719 2.29053 68.2051 2.29053 67.003V57.4392L2.60441 57.8943L7.28115 64.3445L11.8229 57.0971L12.0991 56.6639V67.6119C12.0991 68.4123 11.4934 68.5943 11.0822 68.8674H15.2881C14.902 68.6038 14.2743 68.4249 14.2743 67.6213Z" fill="#231F20"/>
<path id="Vector_24" d="M24.7954 60.738C25.0245 60.3928 25.1783 59.8811 25.8908 59.8811H27.2781V67.976C27.2781 68.5472 26.8419 68.6791 26.5688 68.8643H29.7891C29.5129 68.6791 29.0798 68.5504 29.0798 67.976V59.8811H30.464C31.1796 59.8811 31.3334 60.3928 31.5625 60.738V59.2628H24.7954V60.738ZM58.6751 59.2628H54.0454C54.3216 59.4417 54.7579 59.5767 54.7579 60.1417V67.9885C54.7579 68.5598 54.3216 68.6916 54.0454 68.8768H57.2752C57.0084 68.6916 56.5753 68.5629 56.5753 67.9885V65.0193H57.8873C60.3261 65.0193 61.5816 64.062 61.5816 61.9873C61.5816 60.104 60.1221 59.2754 58.6876 59.2754L58.6751 59.2628ZM57.4604 64.3978H56.5753V59.7336H57.4165C59.2997 59.7336 59.7768 60.8479 59.7768 61.8429C59.7768 63.4876 59.0235 64.3853 57.4604 64.3853V64.3978ZM21.9925 68.2334H19.1676V63.4719H21.2298C21.801 63.4719 21.9297 63.8988 22.1118 64.175V62.1473C21.9297 62.4235 21.7979 62.8598 21.2298 62.8598H19.155V59.8937H22.1212C22.6956 59.8937 22.8148 60.3268 23 60.6031V59.2754H16.644C16.9171 59.4574 17.3503 59.5892 17.3503 60.1574V68.0042C17.3503 68.5755 16.9171 68.7073 16.644 68.8925H23.0628V67.4142C22.8337 67.7531 22.6767 68.2616 21.9611 68.2616L21.9925 68.2334ZM21.9611 68.2616H19.1362V63.4719H21.1984C21.7696 63.4719 21.8983 63.8988 22.0804 64.175V62.1473C21.8983 62.4235 21.7665 62.8598 21.1984 62.8598H19.155V59.8937H22.1212C22.6956 59.8937 22.8148 60.3268 23 60.6031V59.2754H16.644C16.9171 59.4574 17.3503 59.5892 17.3503 60.1574V68.0042C17.3503 68.5755 16.9171 68.7073 16.644 68.8925H23.0628V67.4142C22.8337 67.7531 22.6767 68.2616 21.9611 68.2616ZM88.0162 68.2616H85.1913V63.4719H87.2566C87.8247 63.4719 87.9534 63.8988 88.1354 64.175V62.1473C87.9534 62.4235 87.8215 62.8598 87.2566 62.8598H85.2101V59.8937H88.1888C88.7569 59.8937 88.8856 60.3268 89.0676 60.6031V59.2754H82.6991C82.9753 59.4574 83.4085 59.5892 83.4085 60.1574V67.954C83.4085 68.5504 82.9596 68.6853 82.6709 68.8956H89.1241V67.4173C88.8981 67.7563 88.7412 68.2648 88.0256 68.2648L88.0162 68.2616ZM79.9653 68.111H77.1718V60.1417C77.1718 59.5641 77.6018 59.4417 77.8811 59.2597H74.6608C74.937 59.4417 75.3733 59.5735 75.3733 60.1417V67.9885C75.3733 68.5598 74.937 68.6916 74.6608 68.8768H81.0136V67.2604C80.797 67.6025 80.6432 68.1141 79.9653 68.1141V68.111ZM40.9537 68.3056L38.3548 64.0588L38.3077 64.1059C39.4126 63.9552 40.7308 63.1643 40.7308 61.7675C40.7308 60.3708 39.7578 59.2565 38.0127 59.2565H33.1727C33.4489 59.4386 33.8821 59.5704 33.8821 60.1385V67.9854C33.8821 68.5567 33.4489 68.6885 33.1727 68.8737H36.3962C36.12 68.6885 35.6869 68.5598 35.6869 67.9854V59.7336H36.6662C38.4239 59.7336 38.9417 60.8604 38.9417 61.7487C38.9417 63.1894 37.9028 63.6822 36.3083 63.6822H36.1922L38.7566 68.0199C39.0704 68.5567 38.7189 68.6853 38.5651 68.8643H41.7698C41.5312 68.6948 41.142 68.5504 40.9694 68.3056" fill="#231F20"/>
<path id="Vector_25" d="M32.9782 0.0973014C33.6938 0.571253 34.5476 0.979291 34.5476 2.51414V6.45642L35.3448 7.31643L36.6694 8.75712C36.7447 5.50223 36.8263 2.31954 36.886 0H32.9782V0.0973014ZM37.2909 0C37.3568 2.53611 37.4446 6.11429 37.52 9.67364L39.6418 11.9743V2.511C39.6418 0.976152 40.4955 0.568114 41.2112 0.0941626V0H37.2909ZM39.6418 37.5583V20.7911L37.6706 18.6285C37.6706 19.1401 37.6706 19.6203 37.6706 20.0315C37.6706 24.3599 37.4195 34.633 37.2814 40.0693H41.208V39.972C40.4861 39.5012 39.6386 39.0869 39.6386 37.5583H39.6418ZM36.4999 17.3573L34.5413 15.2073V37.5583C34.5413 39.0869 33.6813 39.5012 32.9719 39.972V40.0693H36.886C36.7447 34.6299 36.4842 24.3442 36.4842 20.0315C36.4842 19.2971 36.4842 18.3868 36.5062 17.3573" fill="#939598"/>
<path id="Vector_26" d="M54.9495 0.0973014V0H51.026C51.1641 5.43318 51.4152 15.7126 51.4152 20.0315C51.4152 24.3504 51.1641 34.633 51.026 40.0693H54.9495V39.972C54.2244 39.5012 53.3801 39.0869 53.3801 37.5583V2.79035C53.3801 1.08915 54.2307 0.593224 54.9495 0.0973014ZM46.7134 0V0.0973014C47.4353 0.571253 48.2828 0.98243 48.2828 2.51414V37.5583C48.2828 39.0869 47.4322 39.5012 46.7134 39.9689V40.0693H50.6274C50.483 34.6299 50.2225 24.3442 50.2225 20.0315C50.2225 15.7189 50.483 5.43318 50.6274 0L46.7134 0Z" fill="#939598"/>
<path id="Vector_27" d="M37.2501 14.5638C34.4221 11.4973 30.5583 6.90525 29.0265 5.06594H26.4528V5.17266C27.2312 5.68114 28.1289 6.11429 28.1289 7.77783V30.6907C28.1289 32.5238 27.1339 33.0197 26.2676 33.5878V33.7071H31.4402V33.5847C30.4202 32.9569 29.262 32.6085 29.2431 30.1917V8.47463L31.1483 10.5274L43.4209 23.9769L44.7203 22.1596C43.0348 20.5306 39.7862 17.3353 37.2438 14.5638H37.2501ZM34.8866 7.7433L32.4038 5.06281H29.4628C31.2708 6.85189 35.3166 10.8852 38.0379 13.8513C40.5489 16.582 43.4428 20.0315 44.9432 21.8551L46.1139 20.2261L47.6613 18.2048V16.3811L45.4642 19.206L34.8866 7.7433ZM56.4279 5.06594L53.9922 8.2047V9.95298L56.6444 6.50035V31.1961C56.6444 32.7246 55.7907 33.1421 55.0751 33.6098V33.7102H58.8416C58.7035 30.5715 58.49 24.9405 58.49 20.2763C58.49 15.4238 58.7192 8.64098 58.8604 5.06594H56.4279Z" fill="#939598"/>
<path id="Vector_28" d="M63.0033 5.16014V5.06598H59.2556C59.3812 8.64416 59.604 15.4239 59.604 20.2764C59.604 24.9406 59.4 30.5621 59.2682 33.7102H63.0002V33.6161C62.2971 33.1547 61.481 32.7466 61.4308 31.3185V7.57698C61.4308 6.04213 62.2814 5.63409 63.0002 5.16014" fill="#939598"/>
<path id="Vector_29" d="M58.173 74.3759H57.6582V77.1914H58.173V74.3759Z" fill="#231F20"/>
<path id="Vector_30" d="M64.9935 81.6076H24.3027V81.9058H64.9935V81.6076Z" fill="#231F20"/>
</g>
<defs>
<clipPath id="clip0_808_9060">
<rect width="88.9711" height="92" fill="white" transform="translate(0.149902)"/>
</clipPath>
</defs>
</svg>
