<svg width="24" height="24" viewBox="0 0 24 24" fill="none" xmlns="http://www.w3.org/2000/svg">
<g id="FacebookLogo">
<path id="Vector" d="M11.2031 10.5001V12.7032H9C8.78865 12.7032 8.58597 12.7872 8.43652 12.9366C8.28708 13.0861 8.20312 13.2887 8.20312 13.5001C8.20312 13.7114 8.28708 13.9141 8.43652 14.0636C8.58597 14.213 8.78865 14.297 9 14.297H11.2031V21.6707C8.72094 21.4661 6.41167 20.3147 4.75428 18.4539C3.08567 16.5805 2.20751 14.1336 2.30407 11.6267C2.40063 9.11977 3.46441 6.74769 5.27219 5.00817C7.07996 3.26865 9.49122 2.29692 12 2.29688C14.5088 2.29693 16.92 3.26867 18.7278 5.00818C20.5356 6.7477 21.5993 9.11978 21.6959 11.6267C21.7924 14.1336 20.9143 16.5805 19.2457 18.4539C17.5883 20.3147 15.2791 21.4661 12.7969 21.6707V14.297H15C15.2113 14.297 15.414 14.213 15.5635 14.0636C15.7129 13.9141 15.7969 13.7114 15.7969 13.5001C15.7969 13.2887 15.7129 13.0861 15.5635 12.9366C15.414 12.7872 15.2113 12.7032 15 12.7032H12.7969V10.5001C12.7973 10.1149 12.9506 9.7455 13.223 9.47308C13.4954 9.20065 13.8648 9.0474 14.2501 9.04696H15.75C15.9613 9.04696 16.164 8.96301 16.3135 8.81356C16.4629 8.66412 16.5469 8.46143 16.5469 8.25009C16.5469 8.03874 16.4629 7.83606 16.3135 7.68661C16.164 7.53717 15.9613 7.45321 15.75 7.45321H14.25H14.2499C13.4422 7.45414 12.6677 7.77544 12.0965 8.34663C11.5253 8.91782 11.204 9.69225 11.2031 10.5V10.5001Z" fill="#9D9D9D" stroke="#9D9D9D" stroke-width="0.09375"/>
</g>
</svg>
