<svg width="24" height="24" viewBox="0 0 24 24" fill="none" xmlns="http://www.w3.org/2000/svg">
<g id="InstagramLogo">
<path id="Vector" d="M14.9531 12C14.9531 13.631 13.631 14.9531 12 14.9531C10.369 14.9531 9.04688 13.631 9.04688 12C9.04688 10.369 10.369 9.04688 12 9.04688C13.631 9.04688 14.9531 10.369 14.9531 12Z" fill="#9D9D9D" stroke="#9D9D9D" stroke-width="0.09375"/>
<path id="Vector_2" d="M12 16.5469H12.0001C13.2055 16.5455 14.3612 16.066 15.2136 15.2136C16.066 14.3612 16.5455 13.2055 16.5469 12.0001V12C16.5469 11.1007 16.2802 10.2216 15.7806 9.47389C15.281 8.72616 14.5708 8.14338 13.74 7.79924C12.9092 7.45509 11.995 7.36505 11.1129 7.54049C10.2309 7.71593 9.42077 8.14898 8.78487 8.78487C8.14898 9.42077 7.71593 10.2309 7.54049 11.1129C7.36505 11.995 7.45509 12.9092 7.79924 13.74C8.14338 14.5708 8.72616 15.281 9.47389 15.7806C10.2216 16.2802 11.1007 16.5469 12 16.5469ZM4.19758 4.19758C5.17302 3.22213 6.49556 2.67344 7.87505 2.67187L16.125 2.67188C17.5045 2.67344 18.827 3.22214 19.8024 4.19758C20.7779 5.17302 21.3266 6.49556 21.3281 7.87505V16.1249C21.3266 17.5044 20.7779 18.827 19.8024 19.8024C18.827 20.7779 17.5044 21.3266 16.1249 21.3281H7.87505C6.49556 21.3266 5.17302 20.7779 4.19758 19.8024C3.22213 18.827 2.67344 17.5044 2.67187 16.1249L2.67188 7.87503C2.67344 6.49555 3.22214 5.17302 4.19758 4.19758ZM16.2239 8.09938C16.4167 8.22815 16.6432 8.29688 16.875 8.29688C17.1858 8.29688 17.4839 8.17341 17.7036 7.95364C17.9234 7.73387 18.0469 7.4358 18.0469 7.125C18.0469 6.89322 17.9781 6.66666 17.8494 6.47394C17.7206 6.28123 17.5376 6.13103 17.3235 6.04233C17.1093 5.95363 16.8737 5.93043 16.6464 5.97564C16.4191 6.02086 16.2102 6.13247 16.0464 6.29636C15.8825 6.46025 15.7709 6.66906 15.7256 6.89638C15.6804 7.1237 15.7036 7.35933 15.7923 7.57346C15.881 7.78759 16.0312 7.97061 16.2239 8.09938Z" fill="#9D9D9D" stroke="#9D9D9D" stroke-width="0.09375"/>
</g>
</svg>
