<svg width="24" height="24" viewBox="0 0 24 24" fill="none" xmlns="http://www.w3.org/2000/svg">
<g id="TwitterLogo">
<path id="Vector" d="M20.1694 10.0751L20.1573 10.0872L20.1558 10.1042C19.5933 16.6313 14.0886 21.7031 7.50005 21.7031C6.14274 21.7031 5.02849 21.4879 4.18561 21.0664L4.16465 21.1083L4.18561 21.0664C3.50616 20.7267 3.23068 20.3636 3.16504 20.265L3.16503 20.265C3.10628 20.1769 3.06819 20.0766 3.05362 19.9717C3.03905 19.8668 3.04837 19.76 3.08088 19.6592C3.11339 19.5584 3.16826 19.4662 3.24138 19.3896C3.3145 19.3129 3.40399 19.2538 3.50316 19.2166L3.50326 19.2166C3.52819 19.2072 5.74942 18.3545 7.187 16.728L7.22148 16.689L7.17906 16.6588C6.29402 16.0285 5.51507 15.2613 4.87153 14.3859L4.8715 14.3858C3.59299 12.6508 2.23817 9.63479 3.05825 5.12422C3.08121 4.99797 3.13828 4.88041 3.22327 4.78428C3.30826 4.68815 3.41794 4.61711 3.54042 4.57885C3.6629 4.54059 3.79351 4.53658 3.91811 4.56725C4.04271 4.59792 4.15654 4.66209 4.24727 4.75283L4.24732 4.75288C4.28089 4.78636 7.40943 7.8714 11.2377 8.86867L11.2964 8.88395L11.2964 8.82335L11.2969 8.24995C11.2969 8.24991 11.2969 8.24987 11.2969 8.24983C11.305 7.06149 11.7845 5.92495 12.6301 5.09002C13.4758 4.2551 14.6183 3.79009 15.8066 3.7972C16.5785 3.80792 17.3345 4.01866 18.0006 4.40883C18.6668 4.79903 19.2204 5.35535 19.6073 6.02345L19.6209 6.04683L19.6479 6.04683L22.5 6.04688C22.6391 6.04688 22.7751 6.08812 22.8907 6.16537C23.0063 6.24263 23.0964 6.35244 23.1497 6.48092C23.2029 6.6094 23.2168 6.75077 23.1897 6.88716C23.1626 7.02356 23.0956 7.14884 22.9973 7.24718L20.1694 10.0751Z" fill="#9D9D9D" stroke="#9D9D9D" stroke-width="0.09375"/>
</g>
</svg>
