<svg width="24" height="24" viewBox="0 0 24 24" fill="none" xmlns="http://www.w3.org/2000/svg">
<g id="YoutubeLogo">
<path id="Vector" d="M21.9231 6.55518L21.9231 6.55529C22.1644 7.48162 22.4531 9.17992 22.4531 12C22.4531 14.8201 22.1644 16.5184 21.9231 17.4447L21.9231 17.4449C21.836 17.7826 21.6698 18.0948 21.4383 18.3557C21.2069 18.6165 20.9167 18.8185 20.5918 18.9452C19.0602 19.5337 17.0915 19.839 15.4219 19.9969C13.753 20.1548 12.3867 20.165 12.0618 20.1651H12.0617H11.9383H11.9382C11.6135 20.1651 10.2473 20.1548 8.57838 19.997C6.90865 19.8391 4.93986 19.5338 3.40818 18.9452C3.08326 18.8185 2.79309 18.6165 2.56163 18.3556C2.33012 18.0947 2.16398 17.7825 2.0769 17.4448L2.07687 17.4447C1.8356 16.5183 1.54688 14.82 1.54688 12C1.54688 9.17987 1.8356 7.48158 2.07692 6.5552L2.07695 6.55509C2.16404 6.21736 2.33019 5.90517 2.56169 5.64429C2.79318 5.38344 3.08336 5.18137 3.40831 5.05474C5.0084 4.43987 7.08538 4.13403 8.79993 3.98247C10.5136 3.83099 11.861 3.83396 11.9996 3.83508L12.0002 3.83507C12.1391 3.83435 13.4865 3.8314 15.2002 3.98278C16.9147 4.13425 18.9917 4.43989 20.5917 5.05474C20.9167 5.18137 21.2069 5.38346 21.4384 5.64433C21.6699 5.90522 21.836 6.21743 21.9231 6.55518ZM10.734 15.351L15.234 12.351C15.2918 12.3125 15.3392 12.2603 15.372 12.199C15.4047 12.1378 15.4219 12.0694 15.4219 12C15.4219 11.9305 15.4047 11.8621 15.372 11.8009C15.3392 11.7397 15.2918 11.6875 15.234 11.649L10.734 8.64897C10.6705 8.6066 10.5966 8.58227 10.5204 8.57858C10.4441 8.57489 10.3682 8.59197 10.3009 8.628C10.2336 8.66403 10.1773 8.71766 10.1381 8.78317C10.0988 8.84869 10.0781 8.92362 10.0781 8.99998V15C10.0781 15.0763 10.0988 15.1513 10.1381 15.2168C10.1773 15.2823 10.2336 15.3359 10.3009 15.372C10.3682 15.408 10.4441 15.4251 10.5204 15.4214C10.5966 15.4177 10.6705 15.3934 10.734 15.351Z" fill="#9D9D9D" stroke="#9D9D9D" stroke-width="0.09375"/>
</g>
</svg>
